<svg xmlns="http://www.w3.org/2000/svg" xmlns:xlink="http://www.w3.org/1999/xlink" width="768" zoomAndPan="magnify" viewBox="0 0 576 576" height="768" preserveAspectRatio="xMidYMid meet" version="1.0"><path fill="#24292f" d="M 490.726562 490.847656 L 405.433594 490.847656 L 405.433594 357.191406 C 405.433594 325.320312 404.785156 284.304688 360.984375 284.304688 C 316.511719 284.304688 309.71875 318.984375 309.71875 354.839844 L 309.71875 490.847656 L 224.425781 490.847656 L 224.425781 216 L 306.359375 216 L 306.359375 253.464844 L 307.464844 253.464844 C 318.910156 231.863281 346.753906 209.0625 388.34375 209.0625 C 474.769531 209.0625 490.753906 265.945312 490.753906 339.984375 L 490.753906 490.847656 Z M 128.089844 178.390625 C 100.632812 178.390625 78.574219 156.167969 78.574219 128.832031 C 78.574219 101.519531 100.65625 79.320312 128.089844 79.320312 C 155.449219 79.320312 177.625 101.519531 177.625 128.832031 C 177.625 156.167969 155.425781 178.390625 128.089844 178.390625 Z M 170.855469 490.847656 L 85.320312 490.847656 L 85.320312 216 L 170.855469 216 Z M 533.398438 0 L 42.503906 0 C 19.007812 0 0 18.574219 0 41.496094 L 0 534.503906 C 0 557.449219 19.007812 576 42.503906 576 L 533.328125 576 C 556.800781 576 576 557.449219 576 534.503906 L 576 41.496094 C 576 18.574219 556.800781 0 533.328125 0 Z M 533.398438 0 " fill-opacity="1" fill-rule="nonzero"/></svg>